<?xml version="1.0" encoding="UTF-8"?>
<svg width="27px" height="34px" viewBox="0 0 27 34" version="1.1" xmlns="http://www.w3.org/2000/svg" xmlns:xlink="http://www.w3.org/1999/xlink">
    <!-- Generator: Sketch 52.5 (67469) - http://www.bohemiancoding.com/sketch -->
    <title>Icon</title>
    <desc>Created with Sketch.</desc>
    <g id="Cards-UI" stroke="none" stroke-width="1" fill="none" fill-rule="evenodd" stroke-linecap="round" stroke-linejoin="round">
        <g id="ui-cards-alejandro-cuffia" transform="translate(-1482.000000, -417.000000)" stroke="#FFFFFF" stroke-width="3">
            <g id="cta2" transform="translate(1420.000000, 390.000000)">
                <g id="Icon" transform="translate(64.000000, 29.000000)">
                    <path d="M11.4285714,0 C17.7407143,0 22.8571429,4.99785714 22.8571429,11.1628571 C22.8571429,13.6635714 22.015,15.9721429 20.5935714,17.8328571" id="Stroke-350"></path>
                    <path d="M15,11.1627857 C15,13.1349286 13.4007143,14.7342143 11.4285714,14.7342143 C9.45642857,14.7342143 7.85714286,13.1349286 7.85714286,11.1627857 C7.85714286,9.19064286 9.45642857,7.59135714 11.4285714,7.59135714 C13.4007143,7.59135714 15,9.19064286 15,11.1627857 L15,11.1627857 Z" id="Stroke-352" opacity="0.5"></path>
                    <path d="M11.4285714,30 L20.5935714,17.8328571" id="Stroke-354"></path>
                    <path d="M11.4285714,0 C5.11642857,0 0,4.99785714 0,11.1628571 C0,13.6635714 0.842142857,15.9721429 2.26357143,17.8328571" id="Stroke-356"></path>
                    <path d="M11.4285714,30 L2.26357143,17.8328571" id="Stroke-358"></path>
                </g>
            </g>
        </g>
    </g>
</svg>